<svg viewBox="0 0 50 45.487" xmlns="http://www.w3.org/2000/svg">
  <path fill="#fff" d="M 49.056 0.626 C 48.203 -0.097 46.864 -0.202 45.478 0.354 L 45.476 0.354 C 44.02 0.938 4.24 18.001 2.621 18.699 C 2.327 18.801 -0.246 19.761 0.019 21.899 C 0.256 23.826 2.324 24.625 2.575 24.717 L 12.689 28.179 C 13.359 30.413 15.833 38.653 16.38 40.413 C 16.721 41.511 17.278 42.953 18.252 43.25 C 19.107 43.579 19.957 43.278 20.508 42.846 L 26.691 37.111 L 36.672 44.895 L 36.911 45.038 C 37.588 45.338 38.237 45.487 38.857 45.487 C 39.335 45.487 39.795 45.398 40.234 45.218 C 41.729 44.604 42.327 43.179 42.39 43.017 L 49.845 4.265 C 50.3 2.195 49.669 1.143 49.056 0.626 Z M 21.608 29.565 L 18.196 38.662 L 14.785 27.29 L 40.94 7.958 L 21.608 29.565 Z"></path>
</svg>